{
	"patcher" : 	{
		"fileversion" : 1,
		"rect" : [ 585.0, 226.0, 861.0, 731.0 ],
		"bgcolor" : [ 0.0, 0.0, 0.0, 1.0 ],
		"bglocked" : 0,
		"defrect" : [ 585.0, 226.0, 861.0, 731.0 ],
		"openrect" : [ 0.0, 0.0, 0.0, 0.0 ],
		"openinpresentation" : 0,
		"default_fontsize" : 12.0,
		"default_fontface" : 0,
		"default_fontname" : "Arial",
		"gridonopen" : 0,
		"gridsize" : [ 15.0, 15.0 ],
		"gridsnaponopen" : 0,
		"toolbarvisible" : 1,
		"boxanimatetime" : 200,
		"imprint" : 0,
		"enablehscroll" : 1,
		"enablevscroll" : 1,
		"devicewidth" : 0.0,
		"boxes" : [ 			{
				"box" : 				{
					"maxclass" : "comment",
					"text" : "MaxMSP interface for OSCELET - kinect skeleton interface\n\n(cc) 2011 Jonas Gruska",
					"linecount" : 3,
					"presentation_linecount" : 3,
					"presentation" : 1,
					"fontsize" : 24.0,
					"presentation_rect" : [ 45.0, 105.0, 651.243469, 89.0 ],
					"id" : "obj-80",
					"fontname" : "Arial",
					"numinlets" : 1,
					"numoutlets" : 0,
					"patching_rect" : [ 45.0, 105.0, 651.243469, 89.0 ]
				}

			}
, 			{
				"box" : 				{
					"maxclass" : "comment",
					"text" : "maxOSCELET",
					"presentation" : 1,
					"textcolor" : [ 0.94902, 1.0, 0.0, 1.0 ],
					"fontsize" : 72.0,
					"frgb" : [ 0.94902, 1.0, 0.0, 1.0 ],
					"presentation_rect" : [ 45.0, 30.000004, 806.0, 78.0 ],
					"id" : "obj-77",
					"fontname" : "Helvetica Bold",
					"numinlets" : 1,
					"numoutlets" : 0,
					"patching_rect" : [ 45.0, 30.000004, 806.0, 78.0 ]
				}

			}
, 			{
				"box" : 				{
					"maxclass" : "comment",
					"text" : "Left Shoulder",
					"linecount" : 2,
					"presentation_linecount" : 2,
					"presentation" : 1,
					"textcolor" : [ 1.0, 1.0, 1.0, 1.0 ],
					"fontsize" : 48.0,
					"frgb" : [ 1.0, 1.0, 1.0, 1.0 ],
					"presentation_rect" : [ 285.000061, 345.000061, 231.0, 102.0 ],
					"id" : "obj-75",
					"fontname" : "Helvetica Bold",
					"numinlets" : 1,
					"numoutlets" : 0,
					"patching_rect" : [ 225.0, 375.0, 231.0, 102.0 ]
				}

			}
, 			{
				"box" : 				{
					"maxclass" : "comment",
					"text" : "Left\nHand",
					"linecount" : 2,
					"presentation_linecount" : 2,
					"presentation" : 1,
					"textcolor" : [ 1.0, 1.0, 1.0, 1.0 ],
					"fontsize" : 48.0,
					"frgb" : [ 1.0, 1.0, 1.0, 1.0 ],
					"presentation_rect" : [ 45.00005, 660.0, 231.0, 102.0 ],
					"id" : "obj-73",
					"fontname" : "Helvetica Bold",
					"numinlets" : 1,
					"numoutlets" : 0,
					"patching_rect" : [ 30.000008, 795.0, 231.0, 102.0 ]
				}

			}
, 			{
				"box" : 				{
					"maxclass" : "comment",
					"text" : "Left Elbow",
					"linecount" : 2,
					"presentation_linecount" : 2,
					"presentation" : 1,
					"textcolor" : [ 1.0, 1.0, 1.0, 1.0 ],
					"fontsize" : 48.0,
					"frgb" : [ 1.0, 1.0, 1.0, 1.0 ],
					"presentation_rect" : [ 45.00005, 360.000061, 231.0, 102.0 ],
					"id" : "obj-74",
					"fontname" : "Helvetica Bold",
					"numinlets" : 1,
					"numoutlets" : 0,
					"patching_rect" : [ 45.000008, 540.0, 231.0, 102.0 ]
				}

			}
, 			{
				"box" : 				{
					"maxclass" : "comment",
					"text" : "Right Hand",
					"linecount" : 2,
					"presentation_linecount" : 2,
					"presentation" : 1,
					"textcolor" : [ 1.0, 1.0, 1.0, 1.0 ],
					"fontsize" : 48.0,
					"frgb" : [ 1.0, 1.0, 1.0, 1.0 ],
					"presentation_rect" : [ 975.0, 660.0, 231.0, 102.0 ],
					"id" : "obj-72",
					"fontname" : "Helvetica Bold",
					"numinlets" : 1,
					"numoutlets" : 0,
					"patching_rect" : [ 1365.0, 765.0, 231.0, 102.0 ]
				}

			}
, 			{
				"box" : 				{
					"maxclass" : "comment",
					"text" : "Right Elbow",
					"linecount" : 2,
					"presentation_linecount" : 2,
					"presentation" : 1,
					"textcolor" : [ 1.0, 1.0, 1.0, 1.0 ],
					"fontsize" : 48.0,
					"frgb" : [ 1.0, 1.0, 1.0, 1.0 ],
					"presentation_rect" : [ 975.0, 360.0, 231.0, 102.0 ],
					"id" : "obj-71",
					"fontname" : "Helvetica Bold",
					"numinlets" : 1,
					"numoutlets" : 0,
					"patching_rect" : [ 1380.0, 510.0, 231.0, 102.0 ]
				}

			}
, 			{
				"box" : 				{
					"maxclass" : "comment",
					"text" : "Right Shoulder",
					"linecount" : 2,
					"presentation_linecount" : 2,
					"presentation" : 1,
					"textcolor" : [ 1.0, 1.0, 1.0, 1.0 ],
					"fontsize" : 48.0,
					"frgb" : [ 1.0, 1.0, 1.0, 1.0 ],
					"presentation_rect" : [ 750.0, 360.000061, 231.0, 102.0 ],
					"id" : "obj-70",
					"fontname" : "Helvetica Bold",
					"numinlets" : 1,
					"numoutlets" : 0,
					"patching_rect" : [ 915.0, 360.0, 231.0, 102.0 ]
				}

			}
, 			{
				"box" : 				{
					"maxclass" : "comment",
					"text" : "Torso",
					"presentation" : 1,
					"textcolor" : [ 1.0, 1.0, 1.0, 1.0 ],
					"fontsize" : 48.0,
					"frgb" : [ 1.0, 1.0, 1.0, 1.0 ],
					"presentation_rect" : [ 510.0, 795.0, 156.0, 54.0 ],
					"id" : "obj-69",
					"fontname" : "Helvetica Bold",
					"numinlets" : 1,
					"numoutlets" : 0,
					"patching_rect" : [ 750.0, 870.0, 156.0, 54.0 ]
				}

			}
, 			{
				"box" : 				{
					"maxclass" : "comment",
					"text" : "Neck",
					"presentation" : 1,
					"textcolor" : [ 1.0, 1.0, 1.0, 1.0 ],
					"fontsize" : 48.0,
					"frgb" : [ 1.0, 1.0, 1.0, 1.0 ],
					"presentation_rect" : [ 510.0, 540.0, 156.0, 54.0 ],
					"id" : "obj-68",
					"fontname" : "Helvetica Bold",
					"numinlets" : 1,
					"numoutlets" : 0,
					"patching_rect" : [ 780.0, 615.0, 156.0, 54.0 ]
				}

			}
, 			{
				"box" : 				{
					"maxclass" : "comment",
					"text" : "Head",
					"presentation" : 1,
					"textcolor" : [ 1.0, 1.0, 1.0, 1.0 ],
					"fontsize" : 48.0,
					"frgb" : [ 1.0, 1.0, 1.0, 1.0 ],
					"presentation_rect" : [ 510.0, 240.000061, 156.0, 54.0 ],
					"id" : "obj-67",
					"fontname" : "Helvetica Bold",
					"numinlets" : 1,
					"numoutlets" : 0,
					"patching_rect" : [ 705.0, 285.0, 156.0, 54.0 ]
				}

			}
, 			{
				"box" : 				{
					"maxclass" : "newobj",
					"text" : "OSC-route /SKEL_TORSO",
					"outlettype" : [ "", "" ],
					"fontsize" : 12.0,
					"id" : "obj-61",
					"fontname" : "Arial",
					"numinlets" : 1,
					"numoutlets" : 2,
					"patching_rect" : [ 690.0, 855.0, 154.0, 20.0 ]
				}

			}
, 			{
				"box" : 				{
					"maxclass" : "number",
					"presentation" : 1,
					"outlettype" : [ "int", "bang" ],
					"fontsize" : 48.0,
					"presentation_rect" : [ 510.0, 960.0, 218.0, 62.0 ],
					"id" : "obj-62",
					"fontname" : "Arial",
					"numinlets" : 1,
					"numoutlets" : 2,
					"patching_rect" : [ 690.0, 1035.0, 218.0, 62.0 ]
				}

			}
, 			{
				"box" : 				{
					"maxclass" : "number",
					"presentation" : 1,
					"outlettype" : [ "int", "bang" ],
					"fontsize" : 48.0,
					"presentation_rect" : [ 510.0, 900.0, 218.392303, 62.0 ],
					"id" : "obj-63",
					"fontname" : "Arial",
					"numinlets" : 1,
					"numoutlets" : 2,
					"patching_rect" : [ 690.0, 975.0, 214.0, 62.0 ]
				}

			}
, 			{
				"box" : 				{
					"maxclass" : "number",
					"presentation" : 1,
					"outlettype" : [ "int", "bang" ],
					"fontsize" : 48.0,
					"presentation_rect" : [ 510.0, 840.0, 219.0, 62.0 ],
					"id" : "obj-64",
					"fontname" : "Arial",
					"numinlets" : 1,
					"numoutlets" : 2,
					"patching_rect" : [ 690.0, 915.0, 219.0, 62.0 ]
				}

			}
, 			{
				"box" : 				{
					"maxclass" : "newobj",
					"text" : "unpack f f f",
					"outlettype" : [ "float", "float", "float" ],
					"fontsize" : 12.0,
					"id" : "obj-65",
					"fontname" : "Arial",
					"numinlets" : 1,
					"numoutlets" : 3,
					"patching_rect" : [ 690.0, 885.0, 69.0, 20.0 ]
				}

			}
, 			{
				"box" : 				{
					"maxclass" : "newobj",
					"text" : "OSC-route /SKEL_LEFT_HAND",
					"outlettype" : [ "", "" ],
					"fontsize" : 12.0,
					"id" : "obj-46",
					"fontname" : "Arial",
					"numinlets" : 1,
					"numoutlets" : 2,
					"patching_rect" : [ 225.0, 780.0, 182.0, 20.0 ]
				}

			}
, 			{
				"box" : 				{
					"maxclass" : "number",
					"presentation" : 1,
					"outlettype" : [ "int", "bang" ],
					"fontsize" : 48.0,
					"presentation_rect" : [ 45.00005, 885.0, 218.0, 62.0 ],
					"id" : "obj-47",
					"fontname" : "Arial",
					"numinlets" : 1,
					"numoutlets" : 2,
					"patching_rect" : [ 225.0, 960.0, 218.0, 62.0 ]
				}

			}
, 			{
				"box" : 				{
					"maxclass" : "number",
					"presentation" : 1,
					"outlettype" : [ "int", "bang" ],
					"fontsize" : 48.0,
					"presentation_rect" : [ 45.00005, 825.0, 216.928192, 62.0 ],
					"id" : "obj-48",
					"fontname" : "Arial",
					"numinlets" : 1,
					"numoutlets" : 2,
					"patching_rect" : [ 225.0, 900.0, 214.0, 62.0 ]
				}

			}
, 			{
				"box" : 				{
					"maxclass" : "number",
					"presentation" : 1,
					"outlettype" : [ "int", "bang" ],
					"fontsize" : 48.0,
					"presentation_rect" : [ 45.00005, 765.0, 218.0, 62.0 ],
					"id" : "obj-49",
					"fontname" : "Arial",
					"numinlets" : 1,
					"numoutlets" : 2,
					"patching_rect" : [ 225.0, 840.0, 218.0, 62.0 ]
				}

			}
, 			{
				"box" : 				{
					"maxclass" : "newobj",
					"text" : "unpack f f f",
					"outlettype" : [ "float", "float", "float" ],
					"fontsize" : 12.0,
					"id" : "obj-50",
					"fontname" : "Arial",
					"numinlets" : 1,
					"numoutlets" : 3,
					"patching_rect" : [ 225.0, 810.0, 69.0, 20.0 ]
				}

			}
, 			{
				"box" : 				{
					"maxclass" : "newobj",
					"text" : "OSC-route /SKEL_LEFT_ELBOW",
					"outlettype" : [ "", "" ],
					"fontsize" : 12.0,
					"id" : "obj-51",
					"fontname" : "Arial",
					"numinlets" : 1,
					"numoutlets" : 2,
					"patching_rect" : [ 225.0, 479.999969, 191.0, 20.0 ]
				}

			}
, 			{
				"box" : 				{
					"maxclass" : "number",
					"presentation" : 1,
					"outlettype" : [ "int", "bang" ],
					"fontsize" : 48.0,
					"presentation_rect" : [ 45.00005, 585.0, 218.0, 62.0 ],
					"id" : "obj-52",
					"fontname" : "Arial",
					"numinlets" : 1,
					"numoutlets" : 2,
					"patching_rect" : [ 225.0, 660.0, 218.0, 62.0 ]
				}

			}
, 			{
				"box" : 				{
					"maxclass" : "number",
					"presentation" : 1,
					"outlettype" : [ "int", "bang" ],
					"fontsize" : 48.0,
					"presentation_rect" : [ 45.00005, 525.0, 216.928192, 62.0 ],
					"id" : "obj-53",
					"fontname" : "Arial",
					"numinlets" : 1,
					"numoutlets" : 2,
					"patching_rect" : [ 225.0, 600.0, 214.0, 62.0 ]
				}

			}
, 			{
				"box" : 				{
					"maxclass" : "number",
					"presentation" : 1,
					"outlettype" : [ "int", "bang" ],
					"fontsize" : 48.0,
					"presentation_rect" : [ 45.00005, 465.000061, 218.0, 62.0 ],
					"id" : "obj-54",
					"fontname" : "Arial",
					"numinlets" : 1,
					"numoutlets" : 2,
					"patching_rect" : [ 225.0, 540.0, 218.0, 62.0 ]
				}

			}
, 			{
				"box" : 				{
					"maxclass" : "newobj",
					"text" : "unpack f f f",
					"outlettype" : [ "float", "float", "float" ],
					"fontsize" : 12.0,
					"id" : "obj-55",
					"fontname" : "Arial",
					"numinlets" : 1,
					"numoutlets" : 3,
					"patching_rect" : [ 225.0, 510.0, 69.0, 20.0 ]
				}

			}
, 			{
				"box" : 				{
					"maxclass" : "newobj",
					"text" : "OSC-route /SKEL_LEFT_SHOULDER",
					"outlettype" : [ "", "" ],
					"fontsize" : 12.0,
					"id" : "obj-56",
					"fontname" : "Arial",
					"numinlets" : 1,
					"numoutlets" : 2,
					"patching_rect" : [ 465.0, 465.0, 215.0, 20.0 ]
				}

			}
, 			{
				"box" : 				{
					"maxclass" : "number",
					"presentation" : 1,
					"outlettype" : [ "int", "bang" ],
					"fontsize" : 48.0,
					"presentation_rect" : [ 285.000061, 570.0, 220.392303, 62.0 ],
					"id" : "obj-57",
					"fontname" : "Arial",
					"numinlets" : 1,
					"numoutlets" : 2,
					"patching_rect" : [ 465.0, 645.0, 216.0, 62.0 ]
				}

			}
, 			{
				"box" : 				{
					"maxclass" : "number",
					"presentation" : 1,
					"outlettype" : [ "int", "bang" ],
					"fontsize" : 48.0,
					"presentation_rect" : [ 285.000061, 510.0, 219.8564, 62.0 ],
					"id" : "obj-58",
					"fontname" : "Arial",
					"numinlets" : 1,
					"numoutlets" : 2,
					"patching_rect" : [ 465.0, 585.0, 214.0, 62.0 ]
				}

			}
, 			{
				"box" : 				{
					"maxclass" : "number",
					"presentation" : 1,
					"outlettype" : [ "int", "bang" ],
					"fontsize" : 48.0,
					"presentation_rect" : [ 285.000061, 450.000061, 222.0, 62.0 ],
					"id" : "obj-59",
					"fontname" : "Arial",
					"numinlets" : 1,
					"numoutlets" : 2,
					"patching_rect" : [ 465.0, 525.0, 222.0, 62.0 ]
				}

			}
, 			{
				"box" : 				{
					"maxclass" : "newobj",
					"text" : "unpack f f f",
					"outlettype" : [ "float", "float", "float" ],
					"fontsize" : 12.0,
					"id" : "obj-60",
					"fontname" : "Arial",
					"numinlets" : 1,
					"numoutlets" : 3,
					"patching_rect" : [ 465.0, 494.999969, 69.0, 20.0 ]
				}

			}
, 			{
				"box" : 				{
					"maxclass" : "newobj",
					"text" : "OSC-route /SKEL_RIGHT_HAND",
					"outlettype" : [ "", "" ],
					"fontsize" : 12.0,
					"id" : "obj-41",
					"fontname" : "Arial",
					"numinlets" : 1,
					"numoutlets" : 2,
					"patching_rect" : [ 1155.0, 765.0, 190.0, 20.0 ]
				}

			}
, 			{
				"box" : 				{
					"maxclass" : "number",
					"presentation" : 1,
					"outlettype" : [ "int", "bang" ],
					"fontsize" : 48.0,
					"presentation_rect" : [ 975.0, 885.0, 215.071808, 62.0 ],
					"id" : "obj-42",
					"fontname" : "Arial",
					"numinlets" : 1,
					"numoutlets" : 2,
					"patching_rect" : [ 1155.0, 945.0, 218.0, 62.0 ]
				}

			}
, 			{
				"box" : 				{
					"maxclass" : "number",
					"presentation" : 1,
					"outlettype" : [ "int", "bang" ],
					"fontsize" : 48.0,
					"presentation_rect" : [ 975.0, 825.0, 215.464096, 62.0 ],
					"id" : "obj-43",
					"fontname" : "Arial",
					"numinlets" : 1,
					"numoutlets" : 2,
					"patching_rect" : [ 1155.0, 885.0, 214.0, 62.0 ]
				}

			}
, 			{
				"box" : 				{
					"maxclass" : "number",
					"presentation" : 1,
					"outlettype" : [ "int", "bang" ],
					"fontsize" : 48.0,
					"presentation_rect" : [ 975.0, 765.0, 216.0, 62.0 ],
					"id" : "obj-44",
					"fontname" : "Arial",
					"numinlets" : 1,
					"numoutlets" : 2,
					"patching_rect" : [ 1155.0, 825.0, 216.0, 62.0 ]
				}

			}
, 			{
				"box" : 				{
					"maxclass" : "newobj",
					"text" : "unpack f f f",
					"outlettype" : [ "float", "float", "float" ],
					"fontsize" : 12.0,
					"id" : "obj-45",
					"fontname" : "Arial",
					"numinlets" : 1,
					"numoutlets" : 3,
					"patching_rect" : [ 1155.0, 795.0, 69.0, 20.0 ]
				}

			}
, 			{
				"box" : 				{
					"maxclass" : "newobj",
					"text" : "OSC-route /SKEL_RIGHT_ELBOW",
					"outlettype" : [ "", "" ],
					"fontsize" : 12.0,
					"id" : "obj-36",
					"fontname" : "Arial",
					"numinlets" : 1,
					"numoutlets" : 2,
					"patching_rect" : [ 1155.0, 494.999969, 199.0, 20.0 ]
				}

			}
, 			{
				"box" : 				{
					"maxclass" : "number",
					"presentation" : 1,
					"outlettype" : [ "int", "bang" ],
					"fontsize" : 48.0,
					"presentation_rect" : [ 975.0, 585.0, 218.0, 62.0 ],
					"id" : "obj-37",
					"fontname" : "Arial",
					"numinlets" : 1,
					"numoutlets" : 2,
					"patching_rect" : [ 1155.0, 675.0, 218.0, 62.0 ]
				}

			}
, 			{
				"box" : 				{
					"maxclass" : "number",
					"presentation" : 1,
					"outlettype" : [ "int", "bang" ],
					"fontsize" : 48.0,
					"presentation_rect" : [ 975.0, 525.0, 214.0, 62.0 ],
					"id" : "obj-38",
					"fontname" : "Arial",
					"numinlets" : 1,
					"numoutlets" : 2,
					"patching_rect" : [ 1155.0, 615.0, 214.0, 62.0 ]
				}

			}
, 			{
				"box" : 				{
					"maxclass" : "number",
					"presentation" : 1,
					"outlettype" : [ "int", "bang" ],
					"fontsize" : 48.0,
					"presentation_rect" : [ 975.0, 465.000031, 216.0, 62.0 ],
					"id" : "obj-39",
					"fontname" : "Arial",
					"numinlets" : 1,
					"numoutlets" : 2,
					"patching_rect" : [ 1155.0, 555.0, 216.0, 62.0 ]
				}

			}
, 			{
				"box" : 				{
					"maxclass" : "newobj",
					"text" : "unpack f f f",
					"outlettype" : [ "float", "float", "float" ],
					"fontsize" : 12.0,
					"id" : "obj-40",
					"fontname" : "Arial",
					"numinlets" : 1,
					"numoutlets" : 3,
					"patching_rect" : [ 1155.0, 525.0, 69.0, 20.0 ]
				}

			}
, 			{
				"box" : 				{
					"maxclass" : "newobj",
					"text" : "OSC-route /SKEL_RIGHT_SHOULDER",
					"outlettype" : [ "", "" ],
					"fontsize" : 12.0,
					"id" : "obj-31",
					"fontname" : "Arial",
					"numinlets" : 1,
					"numoutlets" : 2,
					"patching_rect" : [ 930.0, 465.0, 223.0, 20.0 ]
				}

			}
, 			{
				"box" : 				{
					"maxclass" : "number",
					"presentation" : 1,
					"outlettype" : [ "int", "bang" ],
					"fontsize" : 48.0,
					"presentation_rect" : [ 750.0, 570.0, 214.0, 62.0 ],
					"id" : "obj-32",
					"fontname" : "Arial",
					"numinlets" : 1,
					"numoutlets" : 2,
					"patching_rect" : [ 930.0, 645.0, 214.0, 62.0 ]
				}

			}
, 			{
				"box" : 				{
					"maxclass" : "number",
					"presentation" : 1,
					"outlettype" : [ "int", "bang" ],
					"fontsize" : 48.0,
					"presentation_rect" : [ 750.0, 510.0, 214.0, 62.0 ],
					"id" : "obj-33",
					"fontname" : "Arial",
					"numinlets" : 1,
					"numoutlets" : 2,
					"patching_rect" : [ 930.0, 585.0, 214.0, 62.0 ]
				}

			}
, 			{
				"box" : 				{
					"maxclass" : "number",
					"presentation" : 1,
					"outlettype" : [ "int", "bang" ],
					"fontsize" : 48.0,
					"presentation_rect" : [ 750.0, 450.000061, 213.071808, 62.0 ],
					"id" : "obj-34",
					"fontname" : "Arial",
					"numinlets" : 1,
					"numoutlets" : 2,
					"patching_rect" : [ 930.0, 525.0, 216.0, 62.0 ]
				}

			}
, 			{
				"box" : 				{
					"maxclass" : "newobj",
					"text" : "unpack f f f",
					"outlettype" : [ "float", "float", "float" ],
					"fontsize" : 12.0,
					"id" : "obj-35",
					"fontname" : "Arial",
					"numinlets" : 1,
					"numoutlets" : 3,
					"patching_rect" : [ 930.0, 494.999969, 69.0, 20.0 ]
				}

			}
, 			{
				"box" : 				{
					"maxclass" : "newobj",
					"text" : "OSC-route /SKEL_NECK",
					"outlettype" : [ "", "" ],
					"fontsize" : 12.0,
					"id" : "obj-26",
					"fontname" : "Arial",
					"numinlets" : 1,
					"numoutlets" : 2,
					"patching_rect" : [ 690.0, 600.0, 145.0, 20.0 ]
				}

			}
, 			{
				"box" : 				{
					"maxclass" : "number",
					"presentation" : 1,
					"outlettype" : [ "int", "bang" ],
					"fontsize" : 48.0,
					"presentation_rect" : [ 510.0, 705.0, 218.392303, 62.0 ],
					"id" : "obj-27",
					"fontname" : "Arial",
					"numinlets" : 1,
					"numoutlets" : 2,
					"patching_rect" : [ 690.0, 780.0, 214.0, 62.0 ]
				}

			}
, 			{
				"box" : 				{
					"maxclass" : "number",
					"presentation" : 1,
					"outlettype" : [ "int", "bang" ],
					"fontsize" : 48.0,
					"presentation_rect" : [ 510.0, 645.0, 218.392303, 62.0 ],
					"id" : "obj-28",
					"fontname" : "Arial",
					"numinlets" : 1,
					"numoutlets" : 2,
					"patching_rect" : [ 690.0, 720.0, 214.0, 62.0 ]
				}

			}
, 			{
				"box" : 				{
					"maxclass" : "number",
					"presentation" : 1,
					"outlettype" : [ "int", "bang" ],
					"fontsize" : 48.0,
					"presentation_rect" : [ 510.0, 585.0, 219.0, 62.0 ],
					"id" : "obj-29",
					"fontname" : "Arial",
					"numinlets" : 1,
					"numoutlets" : 2,
					"patching_rect" : [ 690.0, 660.0, 219.0, 62.0 ]
				}

			}
, 			{
				"box" : 				{
					"maxclass" : "newobj",
					"text" : "unpack f f f",
					"outlettype" : [ "float", "float", "float" ],
					"fontsize" : 12.0,
					"id" : "obj-30",
					"fontname" : "Arial",
					"numinlets" : 1,
					"numoutlets" : 3,
					"patching_rect" : [ 690.0, 630.0, 69.0, 20.0 ]
				}

			}
, 			{
				"box" : 				{
					"maxclass" : "newobj",
					"text" : "OSC-route /SKEL_HEAD",
					"outlettype" : [ "", "" ],
					"fontsize" : 12.0,
					"id" : "obj-24",
					"fontname" : "Arial",
					"numinlets" : 1,
					"numoutlets" : 2,
					"patching_rect" : [ 690.0, 345.0, 145.0, 20.0 ]
				}

			}
, 			{
				"box" : 				{
					"maxclass" : "newobj",
					"text" : "OSC-route /OSCELET",
					"outlettype" : [ "", "" ],
					"fontsize" : 12.0,
					"id" : "obj-23",
					"fontname" : "Arial",
					"numinlets" : 1,
					"numoutlets" : 2,
					"patching_rect" : [ 720.0, 240.0, 131.0, 20.0 ]
				}

			}
, 			{
				"box" : 				{
					"maxclass" : "newobj",
					"text" : "OpenSoundControl",
					"outlettype" : [ "", "", "OSCTimeTag" ],
					"fontsize" : 12.0,
					"id" : "obj-22",
					"fontname" : "Arial",
					"numinlets" : 1,
					"numoutlets" : 3,
					"patching_rect" : [ 180.0, 315.0, 113.0, 20.0 ]
				}

			}
, 			{
				"box" : 				{
					"maxclass" : "number",
					"presentation" : 1,
					"outlettype" : [ "int", "bang" ],
					"fontsize" : 48.0,
					"presentation_rect" : [ 510.0, 405.000061, 215.464096, 62.0 ],
					"id" : "obj-12",
					"fontname" : "Arial",
					"numinlets" : 1,
					"numoutlets" : 2,
					"patching_rect" : [ 690.0, 525.0, 214.0, 62.0 ]
				}

			}
, 			{
				"box" : 				{
					"maxclass" : "number",
					"presentation" : 1,
					"outlettype" : [ "int", "bang" ],
					"fontsize" : 48.0,
					"presentation_rect" : [ 510.0, 345.000061, 215.464096, 62.0 ],
					"id" : "obj-11",
					"fontname" : "Arial",
					"numinlets" : 1,
					"numoutlets" : 2,
					"patching_rect" : [ 690.0, 465.0, 214.0, 62.0 ]
				}

			}
, 			{
				"box" : 				{
					"maxclass" : "number",
					"presentation" : 1,
					"outlettype" : [ "int", "bang" ],
					"fontsize" : 48.0,
					"presentation_rect" : [ 510.0, 285.000061, 216.0, 62.0 ],
					"id" : "obj-10",
					"fontname" : "Arial",
					"numinlets" : 1,
					"numoutlets" : 2,
					"patching_rect" : [ 690.0, 405.0, 216.0, 62.0 ]
				}

			}
, 			{
				"box" : 				{
					"maxclass" : "newobj",
					"text" : "unpack f f f",
					"outlettype" : [ "float", "float", "float" ],
					"fontsize" : 12.0,
					"id" : "obj-8",
					"fontname" : "Arial",
					"numinlets" : 1,
					"numoutlets" : 3,
					"patching_rect" : [ 690.0, 375.0, 69.0, 20.0 ]
				}

			}
, 			{
				"box" : 				{
					"maxclass" : "newobj",
					"text" : "udpreceive 57120 OSCELET",
					"outlettype" : [ "" ],
					"fontsize" : 12.0,
					"id" : "obj-1",
					"fontname" : "Arial",
					"numinlets" : 1,
					"numoutlets" : 1,
					"patching_rect" : [ 180.0, 285.0, 165.0, 20.0 ]
				}

			}
, 			{
				"box" : 				{
					"maxclass" : "panel",
					"presentation" : 1,
					"grad1" : [ 1.0, 0.003922, 1.0, 1.0 ],
					"presentation_rect" : [ 30.0, 15.000004, 1202.649414, 196.812698 ],
					"id" : "obj-78",
					"numinlets" : 1,
					"numoutlets" : 0,
					"patching_rect" : [ 30.0, 15.000004, 675.573425, 196.812698 ]
				}

			}
, 			{
				"box" : 				{
					"maxclass" : "panel",
					"presentation" : 1,
					"presentation_rect" : [ 30.0, 225.359009, 1202.649292, 827.839783 ],
					"bgcolor" : [ 0.015686, 0.984314, 0.788235, 1.0 ],
					"id" : "obj-81",
					"numinlets" : 1,
					"numoutlets" : 0,
					"patching_rect" : [ 720.0, 15.0, 128.0, 128.0 ]
				}

			}
 ],
		"lines" : [ 			{
				"patchline" : 				{
					"source" : [ "obj-1", 0 ],
					"destination" : [ "obj-22", 0 ],
					"hidden" : 0,
					"midpoints" : [  ]
				}

			}
, 			{
				"patchline" : 				{
					"source" : [ "obj-23", 0 ],
					"destination" : [ "obj-41", 0 ],
					"hidden" : 0,
					"midpoints" : [  ]
				}

			}
, 			{
				"patchline" : 				{
					"source" : [ "obj-23", 0 ],
					"destination" : [ "obj-61", 0 ],
					"hidden" : 0,
					"midpoints" : [  ]
				}

			}
, 			{
				"patchline" : 				{
					"source" : [ "obj-61", 0 ],
					"destination" : [ "obj-65", 0 ],
					"hidden" : 0,
					"midpoints" : [  ]
				}

			}
, 			{
				"patchline" : 				{
					"source" : [ "obj-65", 2 ],
					"destination" : [ "obj-62", 0 ],
					"hidden" : 0,
					"midpoints" : [  ]
				}

			}
, 			{
				"patchline" : 				{
					"source" : [ "obj-65", 1 ],
					"destination" : [ "obj-63", 0 ],
					"hidden" : 0,
					"midpoints" : [  ]
				}

			}
, 			{
				"patchline" : 				{
					"source" : [ "obj-65", 0 ],
					"destination" : [ "obj-64", 0 ],
					"hidden" : 0,
					"midpoints" : [  ]
				}

			}
, 			{
				"patchline" : 				{
					"source" : [ "obj-23", 0 ],
					"destination" : [ "obj-46", 0 ],
					"hidden" : 0,
					"midpoints" : [  ]
				}

			}
, 			{
				"patchline" : 				{
					"source" : [ "obj-23", 0 ],
					"destination" : [ "obj-51", 0 ],
					"hidden" : 0,
					"midpoints" : [  ]
				}

			}
, 			{
				"patchline" : 				{
					"source" : [ "obj-23", 0 ],
					"destination" : [ "obj-56", 0 ],
					"hidden" : 0,
					"midpoints" : [  ]
				}

			}
, 			{
				"patchline" : 				{
					"source" : [ "obj-46", 0 ],
					"destination" : [ "obj-50", 0 ],
					"hidden" : 0,
					"midpoints" : [  ]
				}

			}
, 			{
				"patchline" : 				{
					"source" : [ "obj-56", 0 ],
					"destination" : [ "obj-60", 0 ],
					"hidden" : 0,
					"midpoints" : [  ]
				}

			}
, 			{
				"patchline" : 				{
					"source" : [ "obj-51", 0 ],
					"destination" : [ "obj-55", 0 ],
					"hidden" : 0,
					"midpoints" : [  ]
				}

			}
, 			{
				"patchline" : 				{
					"source" : [ "obj-60", 0 ],
					"destination" : [ "obj-59", 0 ],
					"hidden" : 0,
					"midpoints" : [  ]
				}

			}
, 			{
				"patchline" : 				{
					"source" : [ "obj-60", 1 ],
					"destination" : [ "obj-58", 0 ],
					"hidden" : 0,
					"midpoints" : [  ]
				}

			}
, 			{
				"patchline" : 				{
					"source" : [ "obj-60", 2 ],
					"destination" : [ "obj-57", 0 ],
					"hidden" : 0,
					"midpoints" : [  ]
				}

			}
, 			{
				"patchline" : 				{
					"source" : [ "obj-55", 2 ],
					"destination" : [ "obj-52", 0 ],
					"hidden" : 0,
					"midpoints" : [  ]
				}

			}
, 			{
				"patchline" : 				{
					"source" : [ "obj-55", 1 ],
					"destination" : [ "obj-53", 0 ],
					"hidden" : 0,
					"midpoints" : [  ]
				}

			}
, 			{
				"patchline" : 				{
					"source" : [ "obj-55", 0 ],
					"destination" : [ "obj-54", 0 ],
					"hidden" : 0,
					"midpoints" : [  ]
				}

			}
, 			{
				"patchline" : 				{
					"source" : [ "obj-50", 0 ],
					"destination" : [ "obj-49", 0 ],
					"hidden" : 0,
					"midpoints" : [  ]
				}

			}
, 			{
				"patchline" : 				{
					"source" : [ "obj-50", 1 ],
					"destination" : [ "obj-48", 0 ],
					"hidden" : 0,
					"midpoints" : [  ]
				}

			}
, 			{
				"patchline" : 				{
					"source" : [ "obj-50", 2 ],
					"destination" : [ "obj-47", 0 ],
					"hidden" : 0,
					"midpoints" : [  ]
				}

			}
, 			{
				"patchline" : 				{
					"source" : [ "obj-41", 0 ],
					"destination" : [ "obj-45", 0 ],
					"hidden" : 0,
					"midpoints" : [  ]
				}

			}
, 			{
				"patchline" : 				{
					"source" : [ "obj-45", 2 ],
					"destination" : [ "obj-42", 0 ],
					"hidden" : 0,
					"midpoints" : [  ]
				}

			}
, 			{
				"patchline" : 				{
					"source" : [ "obj-45", 1 ],
					"destination" : [ "obj-43", 0 ],
					"hidden" : 0,
					"midpoints" : [  ]
				}

			}
, 			{
				"patchline" : 				{
					"source" : [ "obj-45", 0 ],
					"destination" : [ "obj-44", 0 ],
					"hidden" : 0,
					"midpoints" : [  ]
				}

			}
, 			{
				"patchline" : 				{
					"source" : [ "obj-23", 0 ],
					"destination" : [ "obj-36", 0 ],
					"hidden" : 0,
					"midpoints" : [  ]
				}

			}
, 			{
				"patchline" : 				{
					"source" : [ "obj-36", 0 ],
					"destination" : [ "obj-40", 0 ],
					"hidden" : 0,
					"midpoints" : [  ]
				}

			}
, 			{
				"patchline" : 				{
					"source" : [ "obj-40", 0 ],
					"destination" : [ "obj-39", 0 ],
					"hidden" : 0,
					"midpoints" : [  ]
				}

			}
, 			{
				"patchline" : 				{
					"source" : [ "obj-40", 1 ],
					"destination" : [ "obj-38", 0 ],
					"hidden" : 0,
					"midpoints" : [  ]
				}

			}
, 			{
				"patchline" : 				{
					"source" : [ "obj-40", 2 ],
					"destination" : [ "obj-37", 0 ],
					"hidden" : 0,
					"midpoints" : [  ]
				}

			}
, 			{
				"patchline" : 				{
					"source" : [ "obj-23", 0 ],
					"destination" : [ "obj-31", 0 ],
					"hidden" : 0,
					"midpoints" : [  ]
				}

			}
, 			{
				"patchline" : 				{
					"source" : [ "obj-31", 0 ],
					"destination" : [ "obj-35", 0 ],
					"hidden" : 0,
					"midpoints" : [  ]
				}

			}
, 			{
				"patchline" : 				{
					"source" : [ "obj-35", 2 ],
					"destination" : [ "obj-32", 0 ],
					"hidden" : 0,
					"midpoints" : [  ]
				}

			}
, 			{
				"patchline" : 				{
					"source" : [ "obj-35", 1 ],
					"destination" : [ "obj-33", 0 ],
					"hidden" : 0,
					"midpoints" : [  ]
				}

			}
, 			{
				"patchline" : 				{
					"source" : [ "obj-35", 0 ],
					"destination" : [ "obj-34", 0 ],
					"hidden" : 0,
					"midpoints" : [  ]
				}

			}
, 			{
				"patchline" : 				{
					"source" : [ "obj-23", 0 ],
					"destination" : [ "obj-26", 0 ],
					"hidden" : 0,
					"midpoints" : [  ]
				}

			}
, 			{
				"patchline" : 				{
					"source" : [ "obj-26", 0 ],
					"destination" : [ "obj-30", 0 ],
					"hidden" : 0,
					"midpoints" : [  ]
				}

			}
, 			{
				"patchline" : 				{
					"source" : [ "obj-30", 0 ],
					"destination" : [ "obj-29", 0 ],
					"hidden" : 0,
					"midpoints" : [  ]
				}

			}
, 			{
				"patchline" : 				{
					"source" : [ "obj-30", 1 ],
					"destination" : [ "obj-28", 0 ],
					"hidden" : 0,
					"midpoints" : [  ]
				}

			}
, 			{
				"patchline" : 				{
					"source" : [ "obj-30", 2 ],
					"destination" : [ "obj-27", 0 ],
					"hidden" : 0,
					"midpoints" : [  ]
				}

			}
, 			{
				"patchline" : 				{
					"source" : [ "obj-24", 0 ],
					"destination" : [ "obj-8", 0 ],
					"hidden" : 0,
					"midpoints" : [  ]
				}

			}
, 			{
				"patchline" : 				{
					"source" : [ "obj-23", 0 ],
					"destination" : [ "obj-24", 0 ],
					"hidden" : 0,
					"midpoints" : [  ]
				}

			}
, 			{
				"patchline" : 				{
					"source" : [ "obj-22", 1 ],
					"destination" : [ "obj-23", 0 ],
					"hidden" : 0,
					"midpoints" : [  ]
				}

			}
, 			{
				"patchline" : 				{
					"source" : [ "obj-8", 2 ],
					"destination" : [ "obj-12", 0 ],
					"hidden" : 0,
					"midpoints" : [  ]
				}

			}
, 			{
				"patchline" : 				{
					"source" : [ "obj-8", 1 ],
					"destination" : [ "obj-11", 0 ],
					"hidden" : 0,
					"midpoints" : [  ]
				}

			}
, 			{
				"patchline" : 				{
					"source" : [ "obj-8", 0 ],
					"destination" : [ "obj-10", 0 ],
					"hidden" : 0,
					"midpoints" : [  ]
				}

			}
 ]
	}

}
