#N canvas 208 142 455 243 10;
#X obj 24 19 cnv 15 200 200 empty empty empty 20 12 0 14 -233017 -66577
0;
#X obj 35 78 netreceive 57120;
#X obj 35 105 OSCroute /OSCELET;
#X obj 35 131 OSCroute /SKEL_LEFT_HAND;
#X obj 35 156 unpack i i i;
#X floatatom 35 187 5 0 0 0 - - -;
#X floatatom 72 187 5 0 0 0 - - -;
#X floatatom 110 187 5 0 0 0 - - -;
#X text 235 26 Simple usage example for OSCELET \, kinect skeleton
interface. (cc) 2011 Jonas Gruska \, http://mrkva.ovecka.be;
#X text 34 26 Default OSCELET port is 57120 \, but you can change it
for your needs.;
#X connect 1 0 2 0;
#X connect 2 0 3 0;
#X connect 3 0 4 0;
#X connect 4 0 5 0;
#X connect 4 1 6 0;
#X connect 4 2 7 0;
