#N canvas 156 214 457 284 10;
#X obj 24 19 cnv 15 400 200 empty empty empty 20 12 0 14 -233017 -66577
0;
#X obj 35 105 OSCroute /OSCELET;
#X obj 35 131 OSCroute /SKEL_LEFT_HAND;
#X obj 35 156 unpack i i i;
#X floatatom 35 187 5 0 0 0 - - -;
#X floatatom 72 187 5 0 0 0 - - -;
#X floatatom 110 187 5 0 0 0 - - -;
#X obj 35 78 dumpOSC 57120;
#X text 24 231 Simple usage example for OSCELET \, kinect skeleton
interface.;
#X text 24 246 (cc) 2011 Jonas Gruska \, http://mrkva.ovecka.be;
#X text 34 26 Default OSCELET port is 57120 \, but you can change it
for your needs.;
#X connect 1 0 2 0;
#X connect 2 0 3 0;
#X connect 3 0 4 0;
#X connect 3 1 5 0;
#X connect 3 2 6 0;
#X connect 7 0 1 0;
